<svg width="24" height="24" viewBox="0 0 24 24" fill="none" xmlns="http://www.w3.org/2000/svg">
<g filter="url(#filter0_b_8_1256)">
<rect width="24" height="24" rx="2" fill="#96BEDC"/>
</g>
<path d="M14.0235 11.8212L15.3427 9.69444L18.8985 14.9563L18.9002 15.9661L18.8886 9.01736C18.8802 8.84751 18.7852 8.69213 18.6338 8.60049L12.232 5.10189C12.0823 5.03194 11.8923 5.03275 11.7428 5.10411C11.7226 5.11367 11.7036 5.12415 11.6855 5.13557L11.6632 5.14889L5.44926 8.57004L5.42518 8.58045C5.39417 8.59398 5.36279 8.61121 5.33342 8.63121C5.21557 8.71146 5.13735 8.83018 5.11204 8.96333C5.10823 8.98351 5.10542 9.00404 5.10413 9.02482L5.11389 14.6874L8.42595 9.81006C8.84298 9.16335 9.75148 8.95504 10.5949 8.96636L11.5848 8.99118L5.75226 17.8779L6.43979 18.2539L12.3421 9.00021L14.951 8.99121L9.06387 18.4784L11.5172 19.8191L11.8103 19.9793C11.9343 20.0271 12.0805 20.0296 12.2055 19.9866L18.6973 16.4124L17.4561 17.0957L14.0235 11.8212ZM14.5267 18.7086L12.0489 15.0137L13.5615 12.5751L16.8157 17.4483L14.5267 18.7086Z" fill="#2D374B"/>
<path d="M12.05 15.0115L14.5279 18.7064L16.8169 17.4461L13.5626 12.5729L12.05 15.0115Z" fill="#28A0F0"/>
<path d="M18.9017 15.9613L18.9 14.9514L15.3442 9.68959L14.025 11.8163L17.4577 17.0908L18.6988 16.4075C18.8205 16.3135 18.8942 16.1757 18.9019 16.027L18.9017 15.9613Z" fill="#28A0F0"/>
<path d="M4 16.9149L5.75265 17.8744L11.5851 8.98775L10.5953 8.96293C9.75184 8.95161 8.8433 9.15992 8.42631 9.80663L5.11426 14.6839L4 16.3105V16.9149Z" fill="white"/>
<path d="M14.9487 8.98958L12.3398 8.99858L6.4375 18.2523L8.50055 19.3808L9.06158 18.4768L14.9487 8.98958Z" fill="white"/>
<path d="M20 8.9771C19.9782 8.45873 19.6828 7.9842 19.22 7.70794L12.7343 4.16435C12.2766 3.94538 11.7048 3.9451 11.2462 4.16421C11.192 4.19019 4.93902 7.63563 4.93902 7.63563C4.85248 7.67507 4.76912 7.72203 4.69072 7.77536C4.27765 8.05662 4.02586 8.49371 4 8.9739V16.3126L5.11426 14.686L5.10453 9.0235C5.10582 9.00279 5.10856 8.9824 5.11244 8.9623C5.13764 8.82907 5.21593 8.71021 5.33381 8.62989C5.36323 8.60989 11.7231 5.11235 11.7433 5.10276C11.8927 5.03143 12.0827 5.03059 12.2324 5.10054L18.6342 8.59906C18.7857 8.6907 18.8806 8.84608 18.889 9.01594V16.0304C18.8813 16.1791 18.8194 16.317 18.6977 16.4109L17.4565 17.0942L16.8161 17.4469L14.5272 18.7072L12.2059 19.9852C12.0809 20.0281 11.9347 20.0257 11.8107 19.9778L9.06427 18.4771L8.50324 19.3811L10.9714 20.7312C11.053 20.7753 11.1257 20.8144 11.1854 20.8462C11.2778 20.8954 11.3407 20.9283 11.363 20.9386C11.5384 21.0196 11.7908 21.0667 12.0182 21.0667C12.2268 21.0667 12.4301 21.0303 12.6225 20.9587L19.3649 17.249C19.7518 16.9641 19.9795 16.5345 20 16.0691V8.9771Z" fill="#96BEDC"/>
<defs>
<filter id="filter0_b_8_1256" x="-2" y="-2" width="28" height="28" filterUnits="userSpaceOnUse" color-interpolation-filters="sRGB">
<feFlood flood-opacity="0" result="BackgroundImageFix"/>
<feGaussianBlur in="BackgroundImageFix" stdDeviation="1"/>
<feComposite in2="SourceAlpha" operator="in" result="effect1_backgroundBlur_8_1256"/>
<feBlend mode="normal" in="SourceGraphic" in2="effect1_backgroundBlur_8_1256" result="shape"/>
</filter>
</defs>
</svg>
