<svg width="24" height="24" viewBox="0 0 24 24" fill="none" xmlns="http://www.w3.org/2000/svg">
<path fill-rule="evenodd" clip-rule="evenodd" d="M23.9201 10.6004C23.6413 8.19538 22.6434 5.9308 21.0571 4.10344C19.4708 2.27608 17.3702 0.971187 15.0305 0.35977C17.0485 1.02063 18.8409 2.23503 20.2041 3.86497C21.5672 5.49491 22.4464 7.47502 22.7417 9.58028C20.2865 7.56893 16.3157 5.67532 12.5705 6.85162C14.2193 8.34992 14.6105 10.2159 12.8621 11.8223C14.7677 8.64069 10.9781 7.23611 9.08208 5.77385C7.55088 4.59155 8.46888 3.13049 9.65088 2.10679C10.9481 0.982161 12.8717 0.260043 14.3033 0.184347C11.5889 -0.331108 7.49088 0.203571 5.52048 2.17888C3.55008 4.15419 4.92049 6.86483 7.32048 9.0456C7.32048 9.0456 4.28208 11.9377 2.53009 14.0428C0.778085 16.1478 4.83648 19.2177 4.83648 19.2177C9.54288 15.7333 13.1681 18.5965 14.9165 21.9993C13.0576 22.5842 11.0797 22.6803 9.17303 22.2783C7.26634 21.8764 5.49504 20.9899 4.02953 19.7042C2.56402 18.4185 1.45363 16.7767 0.805163 14.937C0.1567 13.0972 -0.00800772 11.1213 0.326885 9.1994C-0.0793643 10.9063 -0.107303 12.6816 0.245033 14.4004C0.59737 16.1193 1.32143 17.74 2.36632 19.1487C3.4112 20.5574 4.75155 21.7198 6.29316 22.5543C7.83476 23.3888 9.5402 23.875 11.2896 23.9789C13.039 24.0828 14.7899 23.8018 16.4192 23.1556C18.0485 22.5094 19.5166 21.5137 20.7205 20.2386C21.9243 18.9634 22.8346 17.4398 23.3874 15.7746C23.9402 14.1095 24.122 12.3434 23.9201 10.6004ZM7.67808 11.6241L5.99808 11.5039L8.55288 9.23905L7.67808 11.6241Z" fill="url(#paint0_linear_8_10)"/>
<path fill-rule="evenodd" clip-rule="evenodd" d="M3.31185 12.314C4.48785 11.0344 5.80905 9.72832 6.49905 9.05667C4.69065 8.99899 3.06585 8.26246 3.20385 6.11533C3.32766 4.71008 3.83725 3.3665 4.67625 2.2332C3.79241 2.89922 3.00282 3.68214 2.32905 4.56056C0.362249 7.12822 0.0562485 11.1425 3.31185 12.314Z" fill="url(#paint1_linear_8_10)"/>
<defs>
<linearGradient id="paint0_linear_8_10" x1="5" y1="1.5" x2="18.8143" y2="5.71265" gradientUnits="userSpaceOnUse">
<stop stop-color="#70FFDE"/>
<stop offset="1" stop-color="#8F7DF8"/>
</linearGradient>
<linearGradient id="paint1_linear_8_10" x1="2.02986" y1="2.86325" x2="5.73943" y2="3.36355" gradientUnits="userSpaceOnUse">
<stop stop-color="#70FFDE"/>
<stop offset="1" stop-color="#8F7DF8"/>
</linearGradient>
</defs>
</svg>
