<svg width="24" height="24" viewBox="0 0 24 24" fill="none" xmlns="http://www.w3.org/2000/svg">
<rect width="24" height="24" rx="4" fill="#2F343B"/>
<path d="M19.2145 5L12.9611 9.57508L14.1187 6.88144L19.2145 5Z" fill="#E27625"/>
<path d="M4.79553 5L10.987 9.61621L9.88101 6.88144L4.79553 5Z" fill="#E27625"/>
<path d="M16.9625 15.6001L15.2983 18.1189L18.854 19.0853L19.8773 15.6617L16.9625 15.6001Z" fill="#E27625"/>
<path d="M4.13416 15.6617L5.14711 19.0853L8.70281 18.1189L7.049 15.6001L4.13416 15.6617Z" fill="#E27625"/>
<path d="M8.50673 11.3641L7.52478 12.8342L11.0495 12.9884L10.9254 9.24615L8.50673 11.3641Z" fill="#E27625"/>
<path d="M15.4935 11.3645L13.0437 9.20546L12.9611 12.9889L16.4857 12.8347L15.4935 11.3645Z" fill="#E27625"/>
<path d="M8.70325 18.1188L10.8325 17.1009L9.003 15.6821L8.70325 18.1188Z" fill="#E27625"/>
<path d="M13.1681 17.1009L15.2974 18.1188L15.008 15.6821L13.1681 17.1009Z" fill="#E27625"/>
<path d="M15.2974 18.1186L13.1681 17.1007L13.3439 18.4579L13.3232 19.0439L15.2974 18.1186Z" fill="#D7C1B3"/>
<path d="M8.70325 18.1186L10.6775 19.0439L10.6672 18.4579L10.8325 17.1007L8.70325 18.1186Z" fill="#D7C1B3"/>
<path d="M10.7181 14.7778L8.95056 14.2638L10.2012 13.6984L10.7181 14.7778Z" fill="#2F343B"/>
<path d="M13.2931 14.7778L13.8099 13.6984L15.0606 14.2638L13.2931 14.7778Z" fill="#2F343B"/>
<path d="M8.70203 18.1189L9.01212 15.6001L7.04822 15.6617L8.70203 18.1189Z" fill="#CC6228"/>
<path d="M14.9989 15.6001L15.2987 18.1189L16.9628 15.6617L14.9989 15.6001Z" fill="#CC6228"/>
<path d="M16.4857 12.8347L12.9611 12.989L13.2918 14.7779L13.8086 13.6984L15.0593 14.2638L16.4857 12.8347Z" fill="#CC6228"/>
<path d="M8.95119 14.2638L10.2019 13.6984L10.7187 14.7779L11.0495 12.989L7.52478 12.8347L8.95119 14.2638Z" fill="#CC6228"/>
<path d="M7.52478 12.8347L9.00288 15.6826L8.95119 14.2638L7.52478 12.8347Z" fill="#E27625"/>
<path d="M15.0596 14.2638L15.0079 15.6826L16.486 12.8347L15.0596 14.2638Z" fill="#E27625"/>
<path d="M11.0483 12.9884L10.7175 14.7773L11.131 16.8849L11.224 14.109L11.0483 12.9884Z" fill="#E27625"/>
<path d="M12.961 12.9884L12.7853 14.0987L12.8783 16.8849L13.2917 14.7773L12.961 12.9884Z" fill="#E27625"/>
<path d="M13.2925 14.7775L12.879 16.8851L13.1684 17.101L15.0083 15.6822L15.06 14.2635L13.2925 14.7775Z" fill="#F5841F"/>
<path d="M8.95056 14.2635L9.00225 15.6822L10.8318 17.101L11.1315 16.8851L10.7181 14.7775L8.95056 14.2635Z" fill="#F5841F"/>
<path d="M13.3236 19.044L13.3442 18.458L13.1892 18.3243H10.8222L10.6672 18.458L10.6775 19.044L8.70325 18.1187L9.39576 18.6738L10.8015 19.63H13.1995L14.6156 18.6738L15.2978 18.1187L13.3236 19.044Z" fill="#C0AD9E"/>
<path d="M13.1682 17.1012L12.8787 16.8852H11.1319L10.8322 17.1012L10.6667 18.4583L10.8218 18.3246H13.1889L13.3439 18.4583L13.1682 17.1012Z" fill="#2F343B"/>
<path d="M19.4733 9.87324L20.0004 7.34409L19.2149 5L13.1681 9.42087L15.4938 11.364L18.7808 12.2996L19.5043 11.4668L19.1838 11.2406L19.6903 10.7883L19.3079 10.5004L19.804 10.12L19.4733 9.87324Z" fill="#763E1A"/>
<path d="M4 7.34409L4.53749 9.87324L4.19639 10.12L4.70287 10.5004L4.32042 10.7883L4.81657 11.2406L4.50648 11.4668L5.23002 12.2996L8.50663 11.364L10.8323 9.42087L4.7959 5L4 7.34409Z" fill="#763E1A"/>
<path d="M18.7806 12.3L15.4937 11.3643L16.486 12.8346L15.0079 15.6824L16.9615 15.6618H19.8763L18.7806 12.3Z" fill="#F5841F"/>
<path d="M8.50642 11.3643L5.22981 12.3L4.13416 15.6618H7.049L9.00256 15.6824L7.52447 12.8346L8.50642 11.3643Z" fill="#F5841F"/>
<path d="M12.9618 12.9885L13.1685 9.42096L14.1195 6.88153H9.88159L10.8325 9.42096L11.0496 12.9885L11.122 14.1194L11.1323 16.885H12.8791V14.1194L12.9618 12.9885Z" fill="#F5841F"/>
</svg>
