<svg width="24" height="24" viewBox="0 0 24 24" fill="none" xmlns="http://www.w3.org/2000/svg">
<rect width="24" height="24" rx="2" fill="#FF0420"/>
<path d="M8.00745 15.5034C7.27051 15.533 6.66711 15.377 6.19725 15.0357C5.73234 14.689 5.49988 14.1734 5.49988 13.4993C5.49988 13.3552 5.51472 13.1848 5.54439 12.9777C5.62353 12.5114 5.73728 11.9511 5.88566 11.2916C6.30606 9.50451 7.39416 8.57576 9.14501 8.50554C9.61982 8.48649 10.0501 8.55157 10.426 8.70631C10.8019 8.85076 11.0986 9.08587 11.3163 9.40648C11.5339 9.72195 11.6427 10.1035 11.6427 10.5512C11.6427 10.685 11.6279 10.8554 11.5982 11.0625C11.5042 11.6375 11.3954 12.2027 11.2619 12.7484C11.0442 13.6371 10.6733 14.3158 10.1391 14.7747C9.60992 15.2281 8.89771 15.4677 8.00745 15.5034ZM8.14099 14.1086C8.4872 14.0947 8.77901 13.975 9.02136 13.7543C9.26866 13.5334 9.44671 13.202 9.55057 12.7553C9.694 12.1423 9.80281 11.6131 9.877 11.1572C9.90173 11.0225 9.91657 10.8829 9.91657 10.7388C9.91657 10.1522 9.62476 9.87057 9.0362 9.89417C8.68999 9.90806 8.39323 10.028 8.14594 10.2489C7.90359 10.4696 7.73048 10.8008 7.62662 11.2475C7.51286 11.6843 7.40405 12.2136 7.2903 12.846C7.26557 12.9756 7.25073 13.11 7.25073 13.2541C7.24578 13.8512 7.54748 14.1324 8.14099 14.1086Z" fill="white"/>
<path d="M12.3718 15.4132C12.3025 15.416 12.2531 15.3974 12.2135 15.3527C12.1838 15.3024 12.1739 15.2462 12.1838 15.1789L13.4648 8.84942C13.4747 8.77698 13.5093 8.71898 13.5687 8.67029C13.6231 8.62179 13.6824 8.59883 13.7467 8.59625L16.2147 8.49726C16.9022 8.46969 17.4512 8.59691 17.8667 8.87356C18.2871 9.15517 18.4997 9.57376 18.4997 10.1347C18.4997 10.2942 18.48 10.4648 18.4453 10.6412C18.292 11.3883 17.9804 11.9463 17.5056 12.3204C17.0407 12.6941 16.4027 12.8947 15.5915 12.9272L14.3402 12.9774L13.9149 15.1095C13.9 15.1821 13.8704 15.2399 13.811 15.2886C13.7566 15.3371 13.6973 15.3601 13.633 15.3626L12.3718 15.4132ZM15.6558 11.5918C15.918 11.5813 16.1405 11.5004 16.3334 11.3434C16.5313 11.1862 16.6599 10.9701 16.7242 10.6896C16.7439 10.5807 16.7538 10.4826 16.7538 10.4002C16.7538 10.215 16.6994 10.0731 16.5956 9.97947C16.4917 9.88072 16.3087 9.8366 16.0565 9.84672L14.9436 9.89135L14.5925 11.6345L15.6558 11.5918Z" fill="white"/>
</svg>
